<svg width="144" height="24" viewBox="0 0 144 24" fill="none" xmlns="http://www.w3.org/2000/svg">
<g clip-path="url(#clip0_454_2753)">
<path fill-rule="evenodd" clip-rule="evenodd" d="M20.5933 3.77473V0H16.7822V3.77473H20.5933ZM20.5933 18.8483V5.26942H16.7822V18.8483H20.5933ZM111.304 10.703V18.3792H107.493V4.80025H111.279V7.3083H111.53C112.282 5.45893 113.561 4.54692 115.366 4.54692C117.322 4.54692 118.601 5.48427 119.227 7.33364H119.503C120.28 5.48427 121.685 4.54692 123.69 4.54692C126.599 4.54692 128.103 6.72563 128.103 10.1963V18.3792H124.267V10.6271C124.267 8.6763 123.565 7.68832 122.186 7.68832C120.581 7.68832 119.704 8.9043 119.704 10.8043V18.3792H115.868V10.5764C115.868 8.65102 115.165 7.68832 113.786 7.68832C112.257 7.68832 111.304 8.87903 111.304 10.703ZM98.8139 5.91494C99.2147 5.2056 100.143 4.80025 101.547 4.80025H106.11V7.91633H102.123V18.3792H98.3122V8.06835C98.3122 7.18163 98.4124 6.62429 98.8139 5.91494ZM73.0027 18.7657H77.9777L82.7416 4.77741H78.3986L76.7931 10.6232L75.5557 15.3208H75.3976L74.1608 10.5971L72.5552 4.77741H68.2384L73.0027 18.7657ZM5.14654 18.8483H9.88524L14.4234 5.26935H10.2864L8.75699 10.9441L7.57857 15.5042H7.42818L6.24974 10.9188L4.72031 5.26935H0.608398L5.14654 18.8483ZM28.0795 3.77473H24.2685V0H28.0795V3.77473ZM21.5606 20.9853H24.2685V5.26942H28.0795V20.7319C28.0795 21.34 28.0795 21.5933 27.8538 22.3026C27.6031 23.2653 26.7757 23.8987 24.8451 24H21.5606V20.9853ZM40.2079 4.68555V6.25825C39.2581 5.05873 37.8336 4.31237 35.9077 4.31237C32.399 4.31237 29.4971 7.3778 29.4971 11.3495C29.4971 15.3212 32.399 18.3867 35.9077 18.3867C37.8336 18.3867 39.2581 17.6403 40.2079 16.4408V18.0135H43.611V4.68555H40.2079ZM36.5408 15.108C34.4568 15.108 32.9003 13.5886 32.9003 11.3495C32.9003 9.1104 34.4568 7.59105 36.5408 7.59105C38.6513 7.59105 40.2079 9.1104 40.2079 11.3495C40.2079 13.5886 38.6513 15.108 36.5408 15.108ZM139.989 6.4928V4.9201H143.392V18.248H139.989V16.6754C139.039 17.8749 137.615 18.6212 135.688 18.6212C132.18 18.6212 129.278 15.5558 129.278 11.5841C129.278 7.61235 132.18 4.54692 135.688 4.54692C137.615 4.54692 139.039 5.29328 139.989 6.4928ZM132.681 11.5841C132.681 13.8232 134.238 15.3426 136.321 15.3426C138.432 15.3426 139.989 13.8232 139.989 11.5841C139.989 9.345 138.432 7.82557 136.321 7.82557C134.238 7.82557 132.681 9.345 132.681 11.5841ZM86.3772 13.0187H96.5292C96.6101 12.5562 96.6643 12.0936 96.6643 11.5766C96.6643 7.57665 93.8363 4.39306 89.851 4.39306C85.6231 4.39306 82.7416 7.52227 82.7416 11.5766C82.7416 15.631 85.5964 18.7601 90.1205 18.7601C92.7058 18.7601 94.7255 17.6989 95.9911 15.8486L93.1905 14.216C92.5982 15.0051 91.5204 15.5765 90.1739 15.5765C88.3428 15.5765 86.8619 14.8146 86.3772 13.0187ZM86.323 10.2977C86.7268 8.55622 87.9931 7.5495 89.851 7.5495C91.3051 7.5495 92.7592 8.33858 93.1905 10.2977H86.323ZM48.0021 20.9552V24H56.549C57.4622 24 58.1927 23.7139 58.7406 23.1419C59.2884 22.5884 59.5624 21.841 59.5624 20.8999V4.65013H56.1107V11.6254C56.1107 12.8987 55.8186 13.8951 55.2342 14.6147C54.6497 15.316 53.8279 15.6666 52.7687 15.6666C51.8373 15.6666 51.1159 15.4082 50.6045 14.8916C50.1114 14.3749 49.8649 13.5998 49.8649 12.5665V4.65013H46.4132V12.8432C46.4132 13.9689 46.6324 14.9654 47.0707 15.8327C47.509 16.7 48.1208 17.3827 48.9061 17.8809C49.7096 18.3607 50.641 18.6006 51.7003 18.6006C52.5222 18.6006 53.1978 18.4991 53.7275 18.2961C54.2571 18.0932 54.6771 17.8348 54.9876 17.5211C55.2981 17.2074 55.5263 16.8937 55.6724 16.58H56.1656V20.1248C56.1656 20.6784 55.9099 20.9552 55.3985 20.9552H48.0021Z" fill="white"/>
</g>
<defs>
<clipPath id="clip0_454_2753">
<rect width="144" height="24" fill="white"/>
</clipPath>
</defs>
</svg>
