<svg width="70" height="20" viewBox="0 0 70 20" fill="none" xmlns="http://www.w3.org/2000/svg">
<path d="M38.506 0L38.5047 15.9996H35.2947L35.296 0H38.506Z" fill="white"/>
<path fill-rule="evenodd" clip-rule="evenodd" d="M10.8081 11.2892H19.3595C19.4275 10.9038 19.4729 10.5183 19.4729 10.0875C19.4729 6.75436 17.0912 4.10146 13.7341 4.10146C10.173 4.10146 7.7459 6.70901 7.7459 10.0875C7.7459 13.466 10.1503 16.0735 13.961 16.0735C16.1385 16.0735 17.8397 15.1892 18.9058 13.6474L16.5468 12.2869C16.0478 12.9444 15.1405 13.4206 14.0063 13.4206C12.4639 13.4206 11.2164 12.7857 10.8081 11.2892ZM10.7627 9.02179C11.1029 7.57063 12.169 6.73168 13.7341 6.73168C14.959 6.73168 16.1839 7.38924 16.5468 9.02179H10.7627Z" fill="white"/>
<path d="M0.422369 5.56566C0.760263 4.97457 1.54165 4.6368 2.72428 4.6368H6.56783V7.2334H3.21V15.9998H0V7.36007C0 6.62119 0.0844736 6.15676 0.422369 5.56566Z" fill="white"/>
<path d="M53.5961 17.487H50.6901V19.9991H54.0819C55.708 19.9147 56.4049 19.3869 56.6161 18.5847C56.8061 17.9936 56.8061 17.7825 56.8061 17.2759L56.8061 4.391H53.5962L53.5961 17.487Z" fill="white"/>
<path d="M47.4988 15.9996H43.5074L39.6787 4.34169H43.1421L44.4303 9.04935L45.4229 12.8704H45.5496L46.5422 9.07046L47.8304 4.34169H51.3149L47.4988 15.9996Z" fill="white"/>
<path fill-rule="evenodd" clip-rule="evenodd" d="M29.6654 4.5345V5.84503C28.8655 4.84547 27.6656 4.22353 26.0435 4.22353C23.0881 4.22353 20.6439 6.77794 20.6439 10.0876C20.6439 13.3972 23.0881 15.9516 26.0435 15.9516C27.6656 15.9516 28.8655 15.3297 29.6654 14.3301V15.6407H32.5319V4.5345H29.6654ZM26.5768 13.2195C24.8213 13.2195 23.5103 11.9534 23.5103 10.0876C23.5103 8.22174 24.8213 6.95564 26.5768 6.95564C28.3544 6.95564 29.6654 8.22174 29.6654 10.0876C29.6654 11.9534 28.3544 13.2195 26.5768 13.2195Z" fill="white"/>
<path d="M60.2626 17.4617V19.9989H67.4616C68.2307 19.9989 68.8461 19.7605 69.3075 19.2839C69.769 18.8226 69.9997 18.1998 69.9997 17.4156V4.41786H67.0924V9.58534C67.0924 10.6463 66.8463 11.4767 66.3541 12.0764C65.8618 12.6607 65.1696 12.9529 64.2774 12.9529C63.4929 12.9529 62.8853 12.7376 62.4546 12.307C62.0393 11.8765 61.8316 11.2307 61.8316 10.3696V4.41786H58.9243V10.6002C58.9243 11.5382 59.1089 12.3685 59.4781 13.0913C59.8473 13.814 60.3626 14.3829 61.024 14.7981C61.7009 15.1979 62.4854 15.3978 63.3775 15.3978C64.0698 15.3978 64.6389 15.3132 65.085 15.1441C65.5311 14.9749 65.8849 14.7596 66.1464 14.4982C66.4079 14.2368 66.6002 13.9754 66.7233 13.714H67.1386V16.7697C67.1386 17.231 66.9232 17.4617 66.4925 17.4617H60.2626Z" fill="white"/>
<path d="M0 17.4878V20H48.8158V17.4878H0Z" fill="url(#paint0_linear_0_37)"/>
<path d="M56.8063 3.14548H53.5963V0H56.8063V3.14548Z" fill="url(#paint1_linear_0_37)"/>
<defs>
<linearGradient id="paint0_linear_0_37" x1="-1.48506" y1="17.0885" x2="48.9988" y2="19.9995" gradientUnits="userSpaceOnUse">
<stop stop-color="#309AFC"/>
<stop offset="0.333333" stop-color="#5754FF"/>
<stop offset="0.666667" stop-color="#FF51A4"/>
<stop offset="1" stop-color="#FF7C51"/>
</linearGradient>
<linearGradient id="paint1_linear_0_37" x1="53.4987" y1="-0.499987" x2="56.9986" y2="3.49991" gradientUnits="userSpaceOnUse">
<stop stop-color="#309AFC"/>
<stop offset="0.333333" stop-color="#5754FF"/>
<stop offset="0.666667" stop-color="#FF51A4"/>
<stop offset="1" stop-color="#FF7C51"/>
</linearGradient>
</defs>
</svg>
