<svg width="16" height="16" viewBox="0 0 16 16" fill="none" xmlns="http://www.w3.org/2000/svg">
<path fill-rule="evenodd" clip-rule="evenodd" d="M9.70707 1.58682C10.4049 1.30532 11.1695 1.25674 11.8956 1.44877C12.4815 1.60371 13.0159 1.90818 13.4544 2.32884C14.0099 2.11501 14.5375 1.82374 15.023 1.46172C15.2286 1.30845 15.508 1.29973 15.7227 1.43991C15.9375 1.58007 16.0419 1.83934 15.9843 2.08923C15.7555 3.08269 15.2922 4.00044 14.6365 4.75713C14.6495 4.88583 14.6562 5.01519 14.6566 5.14471V5.14663C14.6566 9.42587 12.7102 12.5707 9.89507 14.1543C7.0898 15.7325 3.49906 15.7155 0.301907 13.8381C0.0598547 13.696 -0.0543381 13.4073 0.0249812 13.1381C0.104301 12.8688 0.356757 12.6881 0.637205 12.6999C1.83532 12.7503 3.0227 12.4823 4.09311 11.9253C3.00499 11.25 2.23694 10.4383 1.71374 9.5652C1.05135 8.45973 0.801507 7.2898 0.756267 6.23779C0.7111 5.18757 0.868973 4.24023 1.0356 3.55925C1.11924 3.21741 1.20598 2.93909 1.27269 2.74406C1.30905 2.63779 1.34739 2.53215 1.38985 2.42815L1.39066 2.42621C1.47699 2.22009 1.67481 2.07415 1.89737 2.05311C2.12169 2.03192 2.33948 2.13581 2.46417 2.32347C3.08816 3.26259 3.91977 4.02043 4.88245 4.53257C5.6667 4.94979 6.51909 5.19399 7.38853 5.25421C7.38853 4.45622 7.56973 3.68582 8.00473 3.0085C8.41707 2.36648 9.0098 1.86811 9.70707 1.58682ZM2.19627 3.96431C2.05917 4.55787 1.94165 5.33872 1.97806 6.18525C2.01678 7.08553 2.22872 8.0454 2.76275 8.9366C3.29372 9.82273 4.1632 10.6751 5.57327 11.3375C5.76958 11.4297 5.90235 11.6191 5.92219 11.8351C5.94203 12.051 5.84596 12.2613 5.66973 12.3878C4.83037 12.99 3.89931 13.4241 2.92317 13.6753C5.1721 14.3771 7.44867 14.1275 9.29547 13.0885C11.6856 11.7439 13.4333 9.03213 13.4337 5.14773C13.4331 4.98603 13.4184 4.82482 13.3897 4.6662C13.3548 4.47336 13.4145 4.27549 13.5502 4.13407C13.7748 3.89993 13.9754 3.64257 14.1493 3.36644C13.9253 3.46201 13.697 3.54692 13.4649 3.62079C13.2266 3.69663 12.9661 3.61974 12.8073 3.42665C12.4816 3.0309 12.0532 2.75542 11.5829 2.63105C11.1131 2.50679 10.6187 2.53777 10.1646 2.72093C9.71007 2.90431 9.3138 3.23327 9.03367 3.66938C8.7534 4.10584 8.60467 4.62633 8.6114 5.16017L8.61153 5.16792L8.61147 5.87785C8.61147 6.20903 8.3478 6.48001 8.01673 6.48909C6.72927 6.52437 5.45508 6.22242 4.30808 5.61222C3.51658 5.19115 2.80333 4.63273 2.19627 3.96431Z" fill="white"/>
</svg>
