<svg width="20" height="20" viewBox="0 0 20 20" fill="none" xmlns="http://www.w3.org/2000/svg">
<path fill-rule="evenodd" clip-rule="evenodd" d="M12.1338 1.98348C13.0061 1.63161 13.9618 1.57088 14.8695 1.81093C15.6018 2.00459 16.2698 2.38518 16.818 2.91101C17.5123 2.64372 18.1718 2.27963 18.7787 1.82711C19.0357 1.63552 19.385 1.62463 19.6534 1.79984C19.9218 1.97505 20.0524 2.29913 19.9804 2.61149C19.6943 3.85333 19.1152 5.00051 18.2956 5.94637C18.3118 6.10725 18.3202 6.26895 18.3207 6.43085V6.43324C18.3207 11.7823 15.8877 15.7133 12.3688 17.6929C8.86225 19.6656 4.37383 19.6443 0.377383 17.2976C0.0748184 17.12 -0.0679226 16.7591 0.0312265 16.4225C0.130376 16.086 0.445946 15.8601 0.796507 15.8749C2.29415 15.9378 3.77837 15.6028 5.11638 14.9065C3.75623 14.0625 2.79618 13.0479 2.14217 11.9565C1.31418 10.5746 1.00188 9.11221 0.945333 7.7972C0.888875 6.48442 1.08622 5.30025 1.2945 4.44902C1.39905 4.02173 1.50747 3.67382 1.59087 3.43003C1.63631 3.29719 1.68424 3.16514 1.73731 3.03515L1.73832 3.03272C1.84624 2.77507 2.09351 2.59264 2.37171 2.56635C2.65211 2.53986 2.92435 2.66972 3.08022 2.9043C3.8602 4.0782 4.89972 5.0255 6.10307 5.66568C7.08337 6.1872 8.14886 6.49245 9.23567 6.56772C9.23567 5.57023 9.46217 4.60723 10.0059 3.76058C10.5213 2.95806 11.2622 2.33509 12.1338 1.98348ZM2.74534 4.95534C2.57396 5.69729 2.42707 6.67336 2.47257 7.73152C2.52097 8.85688 2.7859 10.0567 3.45344 11.1707C4.11715 12.2784 5.204 13.3439 6.96658 14.1719C7.21198 14.2871 7.37793 14.5238 7.40273 14.7938C7.42753 15.0637 7.30745 15.3266 7.08717 15.4847C6.03796 16.2375 4.87413 16.7801 3.65396 17.094C6.46512 17.9714 9.31083 17.6593 11.6193 16.3606C14.607 14.6798 16.7917 11.2901 16.7921 6.43463C16.7914 6.2325 16.773 6.03098 16.7372 5.83271C16.6935 5.59166 16.7681 5.34432 16.9377 5.16754C17.2185 4.87487 17.4692 4.55317 17.6867 4.20801C17.4067 4.32748 17.1213 4.43361 16.8311 4.52595C16.5332 4.62074 16.2077 4.52463 16.0091 4.28327C15.602 3.78858 15.0665 3.44423 14.4787 3.28878C13.8913 3.13345 13.2733 3.17218 12.7057 3.40113C12.1376 3.63034 11.6423 4.04155 11.2921 4.58668C10.9417 5.13226 10.7558 5.78287 10.7642 6.45017L10.7644 6.45986L10.7643 7.34728C10.7643 7.76124 10.4347 8.09998 10.0209 8.11132C8.41158 8.15543 6.81885 7.77798 5.3851 7.01523C4.39572 6.48889 3.50416 5.79088 2.74534 4.95534Z" fill="#EE4C54"/>
</svg>
