<svg width="36" height="12" viewBox="0 0 36 12" fill="none" xmlns="http://www.w3.org/2000/svg">
<path d="M18.824 12H19.496C19.608 11.3281 19.912 10.5937 20.424 9.79687C21.448 8.21875 23.512 6.67187 25.288 6.3125V5.65625C24.408 5.46875 23.544 5.07812 22.712 4.5C21.016 3.32812 19.768 1.57813 19.496 0H18.824C18.664 0.828125 18.296 1.625 17.72 2.4375C16.584 4.04687 14.808 5.23437 13 5.65625V6.3125C13.912 6.5 14.84 6.9375 15.752 7.60938C17.608 8.96875 18.584 10.6563 18.824 12Z" fill="#0A0A0D"/>
<path d="M1.89583 7.8125H2.11458C2.15104 7.59379 2.25 7.35474 2.41667 7.09534C2.75 6.58162 3.42188 6.07808 4 5.9611V5.74748C3.71354 5.68644 3.43229 5.55929 3.16146 5.37109C2.60937 4.98962 2.20312 4.41996 2.11458 3.90625H1.89583C1.84375 4.17582 1.72396 4.43522 1.53646 4.69971C1.16667 5.22359 0.588541 5.61015 0 5.74748V5.9611C0.296875 6.02214 0.598958 6.16455 0.895832 6.38326C1.5 6.82576 1.81771 7.37508 1.89583 7.8125Z" fill="#0A0A0D"/>
<path d="M33.8958 7.8125H34.1146C34.151 7.59379 34.25 7.35474 34.4167 7.09534C34.75 6.58162 35.4219 6.07808 36 5.9611V5.74748C35.7135 5.68644 35.4323 5.55929 35.1615 5.37109C34.6094 4.98962 34.2031 4.41996 34.1146 3.90625H33.8958C33.8437 4.17582 33.724 4.43522 33.5365 4.69971C33.1667 5.22359 32.5885 5.61015 32 5.74748V5.9611C32.2969 6.02214 32.599 6.16455 32.8958 6.38326C33.5 6.82576 33.8177 7.37508 33.8958 7.8125Z" fill="#0A0A0D"/>
</svg>
